<svg xmlns="http://www.w3.org/2000/svg" width="200" height="60" viewBox="0 0 200 60"><rect width="100%" height="100%" fill="#DDDDDD"/><path fill="#999999" d="M62.895 37.515h8.67v3.33h-12.71v-21.69h4.04v18.36Zm32.23-7.51q0 2.38-.78 4.41-.79 2.04-2.23 3.52t-3.47 2.32q-2.02.83-4.5.83-2.46 0-4.48-.83-2.03-.84-3.47-2.32-1.45-1.48-2.25-3.52-.79-2.03-.79-4.41 0-2.39.79-4.42.8-2.03 2.25-3.52 1.44-1.49 3.47-2.32 2.02-.83 4.48-.83 1.65 0 3.11.38 1.45.39 2.67 1.08 1.21.7 2.18 1.7.97 1 1.64 2.23.68 1.23 1.03 2.66.35 1.45.35 3.04Zm-4.12 0q0-1.79-.48-3.21-.48-1.41-1.37-2.4-.88-1-2.15-1.52-1.27-.53-2.86-.53-1.59 0-2.85.53-1.27.52-2.16 1.52-.9.99-1.38 2.4-.48 1.42-.48 3.21 0 1.78.48 3.2.48 1.42 1.38 2.4.89.98 2.16 1.51 1.26.52 2.85.52t2.86-.52q1.27-.53 2.15-1.51.89-.98 1.37-2.4.48-1.42.48-3.2Zm18.36-.04h7.2v8.78q-1.65 1.21-3.52 1.78-1.87.56-4 .56-2.65 0-4.8-.82-2.16-.83-3.68-2.3-1.52-1.47-2.35-3.51-.82-2.04-.82-4.45 0-2.45.79-4.49.8-2.04 2.26-3.51 1.46-1.47 3.55-2.28 2.08-.81 4.68-.81 1.32 0 2.47.21 1.14.21 2.13.58.98.37 1.79.89.81.53 1.48 1.16l-1.15 1.82q-.27.44-.71.54-.43.1-.94-.22-.5-.28-.99-.57-.5-.28-1.1-.5-.61-.2-1.37-.34-.76-.14-1.75-.14-1.6 0-2.9.55-1.3.54-2.21 1.54-.92 1.01-1.41 2.42-.5 1.41-.5 3.15 0 1.86.54 3.32.53 1.46 1.5 2.47.96 1.01 2.33 1.55 1.36.53 3.04.53 1.2 0 2.15-.26.94-.25 1.84-.69v-3.92h-2.73q-.39 0-.6-.22-.22-.22-.22-.53v-2.29Zm31.78.04q0 2.38-.78 4.41-.79 2.04-2.23 3.52t-3.47 2.32q-2.02.83-4.5.83-2.46 0-4.48-.83-2.03-.84-3.47-2.32-1.45-1.48-2.25-3.52-.79-2.03-.79-4.41 0-2.39.79-4.42.8-2.03 2.25-3.52 1.44-1.49 3.47-2.32 2.02-.83 4.48-.83 1.65 0 3.11.38 1.45.39 2.67 1.08 1.21.7 2.18 1.7.97 1 1.64 2.23.68 1.23 1.03 2.66.35 1.45.35 3.04Zm-4.12 0q0-1.79-.48-3.21-.48-1.41-1.37-2.4-.88-1-2.15-1.52-1.27-.53-2.86-.53-1.59 0-2.85.53-1.27.52-2.16 1.52-.9.99-1.38 2.4-.48 1.42-.48 3.21 0 1.78.48 3.2.48 1.42 1.38 2.4.89.98 2.16 1.51 1.26.52 2.85.52t2.86-.52q1.27-.53 2.15-1.51.89-.98 1.37-2.4.48-1.42.48-3.2Z"/></svg>